<svg width="32" height="32" viewBox="0 0 32 32" fill="none" xmlns="http://www.w3.org/2000/svg">
<g clip-path="url(#clip0_1274_6147)">
<path d="M15 15.7734L4 11.1467V21.4534C4.0058 21.8832 4.13441 22.3024 4.37066 22.6615C4.6069 23.0206 4.94093 23.3046 5.33333 23.4801L14.92 28.0001H15V15.7734Z" fill="white"/>
<path d="M16 13.9999L27.3467 9.23993C27.1557 9.02777 26.9246 8.85556 26.6667 8.73326L17.0667 4.23993C16.7332 4.08211 16.3689 4.00024 16 4.00024C15.6311 4.00024 15.2668 4.08211 14.9333 4.23993L5.33332 8.73326C5.0754 8.85556 4.84428 9.02777 4.65332 9.23993L16 13.9999Z" fill="white"/>
<path d="M17 15.7734V28.0001H17.0667L26.6667 23.4801C27.057 23.3056 27.3897 23.0236 27.6258 22.6671C27.8619 22.3106 27.9917 21.8942 28 21.4667V11.1467L17 15.7734Z" fill="white"/>
</g>
<defs>
<clipPath id="clip0_1274_6147">
<rect width="32" height="32" fill="white"/>
</clipPath>
</defs>
</svg>
